<svg width="2000" height="769" xmlns="http://www.w3.org/2000/svg">
 <style type="text/css">.st0{fill:#FFFFFF;}
	.st1{fill:#FFFFFF;}
	.st2{fill:#FFFFFF;}
	.st3{opacity:0.49;fill:#FFFFFF;}
	.st4{opacity:0.49;}</style>

 <g>
  <title>background</title>
  <rect fill="none" id="canvas_background" height="602" width="802" y="-1" x="-1"/>
 </g>
 <g>
  <title>Layer 1</title>
  <g id="svg_1">
   <g id="svg_2">
    <path fill="#ffffff" id="svg_3" d="m206.3,177.2c0,30.6 -20.2,47.8 -45.4,51.1c-8,1 -15.1,1 -24.1,1l-33.5,0l0,75.8l-16.2,0l0,-179l49.6,0c9.1,0 16.1,0 24.1,1c27,3.7 45.5,19.8 45.5,50.1zm-17.4,0c0,-22.8 -13,-33.5 -29.3,-36.1c-6,-1 -13,-1.3 -21.5,-1.3l-34.8,0l0,75.8l34.7,0c8.6,0 15.6,-0.3 21.5,-1.3c16.4,-2.5 29.4,-13.4 29.4,-37.1z"/>
    <path fill="#ffffff" id="svg_4" d="m249.4,239.5l-23.1,65.7l-17.1,0l66.2,-179.1l21.5,0l64.6,179.1l-17.4,0l-23.4,-65.7l-71.3,0zm66.7,-13.5l-30.4,-87l-31.7,87l62.1,0z"/>
    <path fill="#ffffff" id="svg_5" d="m514.1,305.2l-17.9,0c-4.4,-11.4 -7.5,-22.6 -10.1,-45.9c-2.3,-18.9 -10.1,-33.7 -29.3,-34.8c-4.7,-0.3 -9.9,-0.3 -14,-0.3l-36.6,0l0,81l-16.1,0l0,-179.1l52.7,0c9.1,0 16.1,0 24.4,1c26.5,3.4 44.1,17.9 44.1,46.5c0,23.6 -15.1,37.9 -33.7,42.6c15.3,6.2 22.8,22.6 24.7,41.3c2.5,24.6 5.6,37.6 11.8,47.7zm-71.1,-94.5c7.8,0 12.2,0 18.2,-0.5c19.7,-1.6 32.7,-14.3 32.7,-35.3c0,-21 -11.2,-31.4 -30.6,-34.3c-6.2,-0.8 -11.9,-1 -20.5,-1l-36.6,0l0,71.1l36.8,0z"/>
    <path fill="#ffffff" id="svg_6" d="m546.1,305.2l0,-179.1l16.1,0l0,179.1l-16.1,0z"/>
    <path fill="#ffffff" id="svg_7" d="m715.8,305.2l-93.2,-163.5c0.5,22.1 0.8,48.8 0.8,71.1l0,92.4l-16.1,0l0,-179.1l24.4,0l93.4,163.5c-0.5,-22.3 -0.8,-48.8 -0.8,-71.1l0,-92.4l15.8,0l0.3,179.1l-24.6,0z"/>
    <path fill="#ffffff" id="svg_8" d="m785.9,305.2l0,-179.1l16.1,0l0,179.1l-16.1,0z"/>
    <path fill="#ffffff" id="svg_9" d="m911.8,139.3l0,165.9l-16.1,0l0,-165.9l-65.7,0l0,-13.2l147.4,0l0,13.2l-65.6,0z"/>
    <path fill="#ffffff" id="svg_10" d="m1140,305.2l-16.1,0l0,-81l-104.9,0l0,81l-16.1,0l0,-179.1l16.1,0l0,84.4l104.9,0l0,-84.4l16.1,0l0,179.1z"/>
    <path fill="#ffffff" id="svg_11" d="m1185.1,305.2l0,-179.1l16.1,0l0,179.1l-16.1,0z"/>
   </g>
   <g id="svg_12">
    <path fill="#ffffff" id="svg_13" d="m1496,418.7l258.4,-92.1l0,-1.9l-258.4,-92l0,-134.4l430.4,166.3l0,122.2l-430.4,166.3l0,-134.4z" class="st4"/>
    <path fill="#ffffff" id="svg_14" d="m1759.6,698.4l-430.4,-166.3l0,-122.2l430.4,-166.3l0,134.4l-258.4,92.1l0,1.9l258.4,92.1l0,134.3z"/>
   </g>
   <g id="svg_15">
    <g id="svg_16">
     <path fill="#ffffff" id="svg_17" d="m242.6,397.7l0,230.3l-75.3,0l0,-230.3l-93.8,0l0,-58.6l262.9,0l0,58.6l-93.8,0z"/>
     <path fill="#ffffff" id="svg_18" d="m587.1,628l-221.4,0l0,-288.9l217.2,0l0,58.6l-141.9,0l0,56.1l133.5,0l0,58.6l-133.5,0l0,56.9l146.1,0l0,58.7z"/>
     <path fill="#ffffff" id="svg_19" d="m895.6,434.2l0.4,4.2l-75.3,0l-0.8,-4.2c-6.3,-31 -25.1,-45.6 -55.7,-45.6c-36,0 -63.2,30.1 -63.2,92.5c0,72.8 30.1,97.5 63.6,97.5c29.3,0 48.1,-18 54.4,-49.8l0.8,-4.2l75.3,0l-0.4,4.2c-7.1,69.5 -60.3,105.1 -132.7,105.1c-77.4,0 -139.8,-50.2 -139.8,-148.2c0,-100.5 64.5,-152.4 142.7,-152.4c82.5,0 124.8,43.9 130.7,100.9z"/>
     <path fill="#ffffff" id="svg_20" d="m1206.6,628l-75.3,0l0,-112.2l-115.5,0l0,112.2l-75.3,0l0,-288.9l75.3,0l0,118l115.5,0l0,-118l75.3,0l0,288.9z"/>
    </g>
   </g>
  </g>
 </g>
</svg>