<svg xmlns="http://www.w3.org/2000/svg" version="1.1" xmlns:xlink="http://www.w3.org/1999/xlink" xmlns:svgjs="http://svgjs.com/svgjs" width="1440" height="560" preserveAspectRatio="none" viewBox="0 0 1440 560"><g mask="url(&quot;#SvgjsMask1014&quot;)" fill="none"><path d="M-87.07 388.44L-87.07 388.44" stroke="rgba(88, 133, 175, 1)" stroke-width="1.5"></path><path d="M-87.07 388.44L44.34 351.83" stroke="rgba(88, 133, 175, 1)" stroke-width="1.5"></path><path d="M-87.07 388.44L-83.23 558.63" stroke="rgba(88, 133, 175, 1)" stroke-width="1.5"></path><path d="M-87.07 388.44L96.1 496.61" stroke="rgba(88, 133, 175, 1)" stroke-width="1.5"></path><path d="M-87.07 388.44L-101.34 656.89" stroke="rgba(88, 133, 175, 1)" stroke-width="1.5"></path><path d="M-83.23 558.63L-83.23 558.63" stroke="rgba(88, 133, 175, 1)" stroke-width="1.5"></path><path d="M-83.23 558.63L-101.34 656.89" stroke="rgba(88, 133, 175, 1)" stroke-width="1.5"></path><path d="M-101.34 656.89L-101.34 656.89" stroke="rgba(88, 133, 175, 1)" stroke-width="1.5"></path><path d="M44.34 351.83L44.34 351.83" stroke="rgba(88, 133, 175, 1)" stroke-width="1.5"></path><path d="M44.34 351.83L96.1 496.61" stroke="rgba(88, 133, 175, 1)" stroke-width="1.5"></path><path d="M44.34 351.83L228.14 369.99" stroke="rgba(88, 133, 175, 1)" stroke-width="1.5"></path><path d="M44.34 351.83L-83.23 558.63" stroke="rgba(88, 133, 175, 1)" stroke-width="1.5"></path><path d="M96.1 496.61L96.1 496.61" stroke="rgba(88, 133, 175, 1)" stroke-width="1.5"></path><path d="M96.1 496.61L216.56 540.51" stroke="rgba(88, 133, 175, 1)" stroke-width="1.5"></path><path d="M96.1 496.61L194.21 643.53" stroke="rgba(88, 133, 175, 1)" stroke-width="1.5"></path><path d="M96.1 496.61L228.14 369.99" stroke="rgba(88, 133, 175, 1)" stroke-width="1.5"></path><path d="M96.1 496.61L-83.23 558.63" stroke="rgba(88, 133, 175, 1)" stroke-width="1.5"></path><path d="M96.1 496.61L93.36 693.59" stroke="rgba(88, 133, 175, 1)" stroke-width="1.5"></path><path d="M93.36 693.59L93.36 693.59" stroke="rgba(88, 133, 175, 1)" stroke-width="1.5"></path><path d="M93.36 693.59L194.21 643.53" stroke="rgba(88, 133, 175, 1)" stroke-width="1.5"></path><path d="M93.36 693.59L216.56 540.51" stroke="rgba(88, 133, 175, 1)" stroke-width="1.5"></path><path d="M228.14 369.99L228.14 369.99" stroke="rgba(88, 133, 175, 1)" stroke-width="1.5"></path><path d="M228.14 369.99L355.79 352.64" stroke="rgba(88, 133, 175, 1)" stroke-width="1.5"></path><path d="M216.56 540.51L216.56 540.51" stroke="rgba(88, 133, 175, 1)" stroke-width="1.5"></path><path d="M216.56 540.51L194.21 643.53" stroke="rgba(88, 133, 175, 1)" stroke-width="1.5"></path><path d="M216.56 540.51L375.76 515.08" stroke="rgba(88, 133, 175, 1)" stroke-width="1.5"></path><path d="M216.56 540.51L343.01 643.34" stroke="rgba(88, 133, 175, 1)" stroke-width="1.5"></path><path d="M194.21 643.53L194.21 643.53" stroke="rgba(88, 133, 175, 1)" stroke-width="1.5"></path><path d="M194.21 643.53L343.01 643.34" stroke="rgba(88, 133, 175, 1)" stroke-width="1.5"></path><path d="M194.21 643.53L375.76 515.08" stroke="rgba(88, 133, 175, 1)" stroke-width="1.5"></path><path d="M355.79 352.64L355.79 352.64" stroke="rgba(88, 133, 175, 1)" stroke-width="1.5"></path><path d="M355.79 352.64L500.92 367.36" stroke="rgba(88, 133, 175, 1)" stroke-width="1.5"></path><path d="M355.79 352.64L375.76 515.08" stroke="rgba(88, 133, 175, 1)" stroke-width="1.5"></path><path d="M355.79 352.64L500.13 518.1" stroke="rgba(88, 133, 175, 1)" stroke-width="1.5"></path><path d="M355.79 352.64L216.56 540.51" stroke="rgba(88, 133, 175, 1)" stroke-width="1.5"></path><path d="M375.76 515.08L375.76 515.08" stroke="rgba(88, 133, 175, 1)" stroke-width="1.5"></path><path d="M375.76 515.08L500.13 518.1" stroke="rgba(88, 133, 175, 1)" stroke-width="1.5"></path><path d="M375.76 515.08L343.01 643.34" stroke="rgba(88, 133, 175, 1)" stroke-width="1.5"></path><path d="M343.01 643.34L343.01 643.34" stroke="rgba(88, 133, 175, 1)" stroke-width="1.5"></path><path d="M343.01 643.34L496.73 638.23" stroke="rgba(88, 133, 175, 1)" stroke-width="1.5"></path><path d="M343.01 643.34L500.13 518.1" stroke="rgba(88, 133, 175, 1)" stroke-width="1.5"></path><path d="M500.92 367.36L500.92 367.36" stroke="rgba(88, 133, 175, 1)" stroke-width="1.5"></path><path d="M500.92 367.36L500.13 518.1" stroke="rgba(88, 133, 175, 1)" stroke-width="1.5"></path><path d="M500.92 367.36L662.46 344.64" stroke="rgba(88, 133, 175, 1)" stroke-width="1.5"></path><path d="M500.13 518.1L500.13 518.1" stroke="rgba(88, 133, 175, 1)" stroke-width="1.5"></path><path d="M500.13 518.1L496.73 638.23" stroke="rgba(88, 133, 175, 1)" stroke-width="1.5"></path><path d="M500.13 518.1L659.07 536.96" stroke="rgba(88, 133, 175, 1)" stroke-width="1.5"></path><path d="M496.73 638.23L496.73 638.23" stroke="rgba(88, 133, 175, 1)" stroke-width="1.5"></path><path d="M698.3 245.52L698.3 245.52" stroke="rgba(88, 133, 175, 1)" stroke-width="1.5"></path><path d="M698.3 245.52L662.46 344.64" stroke="rgba(88, 133, 175, 1)" stroke-width="1.5"></path><path d="M662.46 344.64L662.46 344.64" stroke="rgba(88, 133, 175, 1)" stroke-width="1.5"></path><path d="M662.46 344.64L816.57 258.94" stroke="rgba(88, 133, 175, 1)" stroke-width="1.5"></path><path d="M662.46 344.64L847.97 371.34" stroke="rgba(88, 133, 175, 1)" stroke-width="1.5"></path><path d="M662.46 344.64L659.07 536.96" stroke="rgba(88, 133, 175, 1)" stroke-width="1.5"></path><path d="M662.46 344.64L500.13 518.1" stroke="rgba(88, 133, 175, 1)" stroke-width="1.5"></path><path d="M659.07 536.96L659.07 536.96" stroke="rgba(88, 133, 175, 1)" stroke-width="1.5"></path><path d="M659.07 536.96L648.72 696.81" stroke="rgba(88, 133, 175, 1)" stroke-width="1.5"></path><path d="M659.07 536.96L842.33 511.14" stroke="rgba(88, 133, 175, 1)" stroke-width="1.5"></path><path d="M659.07 536.96L496.73 638.23" stroke="rgba(88, 133, 175, 1)" stroke-width="1.5"></path><path d="M659.07 536.96L814.71 680.99" stroke="rgba(88, 133, 175, 1)" stroke-width="1.5"></path><path d="M648.72 696.81L648.72 696.81" stroke="rgba(88, 133, 175, 1)" stroke-width="1.5"></path><path d="M816.57 258.94L816.57 258.94" stroke="rgba(88, 133, 175, 1)" stroke-width="1.5"></path><path d="M816.57 258.94L847.97 371.34" stroke="rgba(88, 133, 175, 1)" stroke-width="1.5"></path><path d="M816.57 258.94L698.3 245.52" stroke="rgba(88, 133, 175, 1)" stroke-width="1.5"></path><path d="M816.57 258.94L1012.46 241.8" stroke="rgba(88, 133, 175, 1)" stroke-width="1.5"></path><path d="M847.97 371.34L847.97 371.34" stroke="rgba(88, 133, 175, 1)" stroke-width="1.5"></path><path d="M847.97 371.34L982.58 392.66" stroke="rgba(88, 133, 175, 1)" stroke-width="1.5"></path><path d="M842.33 511.14L842.33 511.14" stroke="rgba(88, 133, 175, 1)" stroke-width="1.5"></path><path d="M842.33 511.14L847.97 371.34" stroke="rgba(88, 133, 175, 1)" stroke-width="1.5"></path><path d="M842.33 511.14L994.01 526.36" stroke="rgba(88, 133, 175, 1)" stroke-width="1.5"></path><path d="M842.33 511.14L814.71 680.99" stroke="rgba(88, 133, 175, 1)" stroke-width="1.5"></path><path d="M842.33 511.14L982.58 392.66" stroke="rgba(88, 133, 175, 1)" stroke-width="1.5"></path><path d="M814.71 680.99L814.71 680.99" stroke="rgba(88, 133, 175, 1)" stroke-width="1.5"></path><path d="M814.71 680.99L968.79 681.15" stroke="rgba(88, 133, 175, 1)" stroke-width="1.5"></path><path d="M814.71 680.99L648.72 696.81" stroke="rgba(88, 133, 175, 1)" stroke-width="1.5"></path><path d="M814.71 680.99L994.01 526.36" stroke="rgba(88, 133, 175, 1)" stroke-width="1.5"></path><path d="M971.26 -107.96L971.26 -107.96" stroke="rgba(88, 133, 175, 1)" stroke-width="1.5"></path><path d="M971.26 -107.96L1125.9 -93.5" stroke="rgba(88, 133, 175, 1)" stroke-width="1.5"></path><path d="M971.26 -107.96L946.54 69.24" stroke="rgba(88, 133, 175, 1)" stroke-width="1.5"></path><path d="M971.26 -107.96L1119.06 88.57" stroke="rgba(88, 133, 175, 1)" stroke-width="1.5"></path><path d="M946.54 69.24L946.54 69.24" stroke="rgba(88, 133, 175, 1)" stroke-width="1.5"></path><path d="M946.54 69.24L1119.06 88.57" stroke="rgba(88, 133, 175, 1)" stroke-width="1.5"></path><path d="M946.54 69.24L1012.46 241.8" stroke="rgba(88, 133, 175, 1)" stroke-width="1.5"></path><path d="M1012.46 241.8L1012.46 241.8" stroke="rgba(88, 133, 175, 1)" stroke-width="1.5"></path><path d="M1012.46 241.8L1135.85 233.41" stroke="rgba(88, 133, 175, 1)" stroke-width="1.5"></path><path d="M1012.46 241.8L1112.37 351.51" stroke="rgba(88, 133, 175, 1)" stroke-width="1.5"></path><path d="M982.58 392.66L982.58 392.66" stroke="rgba(88, 133, 175, 1)" stroke-width="1.5"></path><path d="M982.58 392.66L994.01 526.36" stroke="rgba(88, 133, 175, 1)" stroke-width="1.5"></path><path d="M982.58 392.66L1112.37 351.51" stroke="rgba(88, 133, 175, 1)" stroke-width="1.5"></path><path d="M982.58 392.66L1012.46 241.8" stroke="rgba(88, 133, 175, 1)" stroke-width="1.5"></path><path d="M982.58 392.66L1115.3 491.74" stroke="rgba(88, 133, 175, 1)" stroke-width="1.5"></path><path d="M994.01 526.36L994.01 526.36" stroke="rgba(88, 133, 175, 1)" stroke-width="1.5"></path><path d="M994.01 526.36L1115.3 491.74" stroke="rgba(88, 133, 175, 1)" stroke-width="1.5"></path><path d="M994.01 526.36L968.79 681.15" stroke="rgba(88, 133, 175, 1)" stroke-width="1.5"></path><path d="M968.79 681.15L968.79 681.15" stroke="rgba(88, 133, 175, 1)" stroke-width="1.5"></path><path d="M968.79 681.15L1162.25 656.69" stroke="rgba(88, 133, 175, 1)" stroke-width="1.5"></path><path d="M1125.9 -93.5L1125.9 -93.5" stroke="rgba(88, 133, 175, 1)" stroke-width="1.5"></path><path d="M1125.9 -93.5L1270.22 -81.92" stroke="rgba(88, 133, 175, 1)" stroke-width="1.5"></path><path d="M1125.9 -93.5L1119.06 88.57" stroke="rgba(88, 133, 175, 1)" stroke-width="1.5"></path><path d="M1119.06 88.57L1119.06 88.57" stroke="rgba(88, 133, 175, 1)" stroke-width="1.5"></path><path d="M1119.06 88.57L1135.85 233.41" stroke="rgba(88, 133, 175, 1)" stroke-width="1.5"></path><path d="M1119.06 88.57L1299.63 104.99" stroke="rgba(88, 133, 175, 1)" stroke-width="1.5"></path><path d="M1119.06 88.57L1012.46 241.8" stroke="rgba(88, 133, 175, 1)" stroke-width="1.5"></path><path d="M1119.06 88.57L1274.7 203.06" stroke="rgba(88, 133, 175, 1)" stroke-width="1.5"></path><path d="M1135.85 233.41L1135.85 233.41" stroke="rgba(88, 133, 175, 1)" stroke-width="1.5"></path><path d="M1135.85 233.41L1112.37 351.51" stroke="rgba(88, 133, 175, 1)" stroke-width="1.5"></path><path d="M1135.85 233.41L1274.7 203.06" stroke="rgba(88, 133, 175, 1)" stroke-width="1.5"></path><path d="M1135.85 233.41L1299.63 104.99" stroke="rgba(88, 133, 175, 1)" stroke-width="1.5"></path><path d="M1112.37 351.51L1112.37 351.51" stroke="rgba(88, 133, 175, 1)" stroke-width="1.5"></path><path d="M1112.37 351.51L1115.3 491.74" stroke="rgba(88, 133, 175, 1)" stroke-width="1.5"></path><path d="M1115.3 491.74L1115.3 491.74" stroke="rgba(88, 133, 175, 1)" stroke-width="1.5"></path><path d="M1115.3 491.74L1257.43 408.07" stroke="rgba(88, 133, 175, 1)" stroke-width="1.5"></path><path d="M1115.3 491.74L1162.25 656.69" stroke="rgba(88, 133, 175, 1)" stroke-width="1.5"></path><path d="M1162.25 656.69L1162.25 656.69" stroke="rgba(88, 133, 175, 1)" stroke-width="1.5"></path><path d="M1162.25 656.69L1283.48 659.27" stroke="rgba(88, 133, 175, 1)" stroke-width="1.5"></path><path d="M1270.22 -81.92L1270.22 -81.92" stroke="rgba(88, 133, 175, 1)" stroke-width="1.5"></path><path d="M1270.22 -81.92L1398.95 -98.3" stroke="rgba(88, 133, 175, 1)" stroke-width="1.5"></path><path d="M1270.22 -81.92L1299.63 104.99" stroke="rgba(88, 133, 175, 1)" stroke-width="1.5"></path><path d="M1270.22 -81.92L1400.59 62.64" stroke="rgba(88, 133, 175, 1)" stroke-width="1.5"></path><path d="M1270.22 -81.92L1119.06 88.57" stroke="rgba(88, 133, 175, 1)" stroke-width="1.5"></path><path d="M1299.63 104.99L1299.63 104.99" stroke="rgba(88, 133, 175, 1)" stroke-width="1.5"></path><path d="M1299.63 104.99L1274.7 203.06" stroke="rgba(88, 133, 175, 1)" stroke-width="1.5"></path><path d="M1299.63 104.99L1400.59 62.64" stroke="rgba(88, 133, 175, 1)" stroke-width="1.5"></path><path d="M1299.63 104.99L1423.18 191.04" stroke="rgba(88, 133, 175, 1)" stroke-width="1.5"></path><path d="M1274.7 203.06L1274.7 203.06" stroke="rgba(88, 133, 175, 1)" stroke-width="1.5"></path><path d="M1257.43 408.07L1257.43 408.07" stroke="rgba(88, 133, 175, 1)" stroke-width="1.5"></path><path d="M1257.43 408.07L1112.37 351.51" stroke="rgba(88, 133, 175, 1)" stroke-width="1.5"></path><path d="M1257.43 408.07L1405.89 341.86" stroke="rgba(88, 133, 175, 1)" stroke-width="1.5"></path><path d="M1283.48 659.27L1283.48 659.27" stroke="rgba(88, 133, 175, 1)" stroke-width="1.5"></path><path d="M1283.48 659.27L1417.64 649.39" stroke="rgba(88, 133, 175, 1)" stroke-width="1.5"></path><path d="M1283.48 659.27L1115.3 491.74" stroke="rgba(88, 133, 175, 1)" stroke-width="1.5"></path><path d="M1398.95 -98.3L1398.95 -98.3" stroke="rgba(88, 133, 175, 1)" stroke-width="1.5"></path><path d="M1398.95 -98.3L1400.59 62.64" stroke="rgba(88, 133, 175, 1)" stroke-width="1.5"></path><path d="M1400.59 62.64L1400.59 62.64" stroke="rgba(88, 133, 175, 1)" stroke-width="1.5"></path><path d="M1400.59 62.64L1423.18 191.04" stroke="rgba(88, 133, 175, 1)" stroke-width="1.5"></path><path d="M1423.18 191.04L1423.18 191.04" stroke="rgba(88, 133, 175, 1)" stroke-width="1.5"></path><path d="M1423.18 191.04L1274.7 203.06" stroke="rgba(88, 133, 175, 1)" stroke-width="1.5"></path><path d="M1423.18 191.04L1405.89 341.86" stroke="rgba(88, 133, 175, 1)" stroke-width="1.5"></path><path d="M1423.18 191.04L1608.46 218.27" stroke="rgba(88, 133, 175, 1)" stroke-width="1.5"></path><path d="M1423.18 191.04L1581.5 38.49" stroke="rgba(88, 133, 175, 1)" stroke-width="1.5"></path><path d="M1405.89 341.86L1405.89 341.86" stroke="rgba(88, 133, 175, 1)" stroke-width="1.5"></path><path d="M1405.89 341.86L1274.7 203.06" stroke="rgba(88, 133, 175, 1)" stroke-width="1.5"></path><path d="M1405.89 341.86L1593.58 382.98" stroke="rgba(88, 133, 175, 1)" stroke-width="1.5"></path><path d="M1405.89 341.86L1608.46 218.27" stroke="rgba(88, 133, 175, 1)" stroke-width="1.5"></path><path d="M1417.64 649.39L1417.64 649.39" stroke="rgba(88, 133, 175, 1)" stroke-width="1.5"></path><path d="M1417.64 649.39L1543.62 651.45" stroke="rgba(88, 133, 175, 1)" stroke-width="1.5"></path><path d="M1594.09 -97.86L1594.09 -97.86" stroke="rgba(88, 133, 175, 1)" stroke-width="1.5"></path><path d="M1594.09 -97.86L1581.5 38.49" stroke="rgba(88, 133, 175, 1)" stroke-width="1.5"></path><path d="M1594.09 -97.86L1398.95 -98.3" stroke="rgba(88, 133, 175, 1)" stroke-width="1.5"></path><path d="M1594.09 -97.86L1400.59 62.64" stroke="rgba(88, 133, 175, 1)" stroke-width="1.5"></path><path d="M1594.09 -97.86L1608.46 218.27" stroke="rgba(88, 133, 175, 1)" stroke-width="1.5"></path><path d="M1581.5 38.49L1581.5 38.49" stroke="rgba(88, 133, 175, 1)" stroke-width="1.5"></path><path d="M1581.5 38.49L1608.46 218.27" stroke="rgba(88, 133, 175, 1)" stroke-width="1.5"></path><path d="M1581.5 38.49L1400.59 62.64" stroke="rgba(88, 133, 175, 1)" stroke-width="1.5"></path><path d="M1608.46 218.27L1608.46 218.27" stroke="rgba(88, 133, 175, 1)" stroke-width="1.5"></path><path d="M1608.46 218.27L1593.58 382.98" stroke="rgba(88, 133, 175, 1)" stroke-width="1.5"></path><path d="M1608.46 218.27L1400.59 62.64" stroke="rgba(88, 133, 175, 1)" stroke-width="1.5"></path><path d="M1593.58 382.98L1593.58 382.98" stroke="rgba(88, 133, 175, 1)" stroke-width="1.5"></path><path d="M1593.58 382.98L1579.78 545.98" stroke="rgba(88, 133, 175, 1)" stroke-width="1.5"></path><path d="M1579.78 545.98L1579.78 545.98" stroke="rgba(88, 133, 175, 1)" stroke-width="1.5"></path><path d="M1579.78 545.98L1543.62 651.45" stroke="rgba(88, 133, 175, 1)" stroke-width="1.5"></path><path d="M1579.78 545.98L1417.64 649.39" stroke="rgba(88, 133, 175, 1)" stroke-width="1.5"></path><path d="M1543.62 651.45L1543.62 651.45" stroke="rgba(88, 133, 175, 1)" stroke-width="1.5"></path><path d="M1543.62 651.45L1283.48 659.27" stroke="rgba(88, 133, 175, 1)" stroke-width="1.5"></path><path d="M1543.62 651.45L1593.58 382.98" stroke="rgba(88, 133, 175, 1)" stroke-width="1.5"></path><circle r="5" cx="-87.07" cy="388.44" fill="rgba(88, 133, 175, 1)"></circle><circle r="5" cx="-83.23" cy="558.63" fill="rgba(88, 133, 175, 1)"></circle><circle r="5" cx="-101.34" cy="656.89" fill="rgba(88, 133, 175, 1)"></circle><circle r="5" cx="44.34" cy="351.83" fill="rgba(88, 133, 175, 1)"></circle><circle r="5" cx="96.1" cy="496.61" fill="rgba(88, 133, 175, 1)"></circle><circle r="5" cx="93.36" cy="693.59" fill="rgba(88, 133, 175, 1)"></circle><circle r="5" cx="228.14" cy="369.99" fill="rgba(88, 133, 175, 1)"></circle><circle r="5" cx="216.56" cy="540.51" fill="rgba(88, 133, 175, 1)"></circle><circle r="5" cx="194.21" cy="643.53" fill="rgba(88, 133, 175, 1)"></circle><circle r="5" cx="355.79" cy="352.64" fill="rgba(88, 133, 175, 1)"></circle><circle r="5" cx="375.76" cy="515.08" fill="rgba(88, 133, 175, 1)"></circle><circle r="5" cx="343.01" cy="643.34" fill="rgba(88, 133, 175, 1)"></circle><circle r="5" cx="500.92" cy="367.36" fill="rgba(88, 133, 175, 1)"></circle><circle r="5" cx="500.13" cy="518.1" fill="rgba(88, 133, 175, 1)"></circle><circle r="5" cx="496.73" cy="638.23" fill="rgba(88, 133, 175, 1)"></circle><circle r="5" cx="698.3" cy="245.52" fill="rgba(88, 133, 175, 1)"></circle><circle r="5" cx="662.46" cy="344.64" fill="rgba(88, 133, 175, 1)"></circle><circle r="5" cx="659.07" cy="536.96" fill="rgba(88, 133, 175, 1)"></circle><circle r="5" cx="648.72" cy="696.81" fill="rgba(88, 133, 175, 1)"></circle><circle r="5" cx="816.57" cy="258.94" fill="rgba(88, 133, 175, 1)"></circle><circle r="5" cx="847.97" cy="371.34" fill="rgba(88, 133, 175, 1)"></circle><circle r="5" cx="842.33" cy="511.14" fill="rgba(88, 133, 175, 1)"></circle><circle r="5" cx="814.71" cy="680.99" fill="rgba(88, 133, 175, 1)"></circle><circle r="5" cx="971.26" cy="-107.96" fill="rgba(88, 133, 175, 1)"></circle><circle r="5" cx="946.54" cy="69.24" fill="rgba(88, 133, 175, 1)"></circle><circle r="5" cx="1012.46" cy="241.8" fill="rgba(88, 133, 175, 1)"></circle><circle r="5" cx="982.58" cy="392.66" fill="rgba(88, 133, 175, 1)"></circle><circle r="5" cx="994.01" cy="526.36" fill="rgba(88, 133, 175, 1)"></circle><circle r="5" cx="968.79" cy="681.15" fill="rgba(88, 133, 175, 1)"></circle><circle r="5" cx="1125.9" cy="-93.5" fill="rgba(88, 133, 175, 1)"></circle><circle r="5" cx="1119.06" cy="88.57" fill="rgba(88, 133, 175, 1)"></circle><circle r="5" cx="1135.85" cy="233.41" fill="rgba(88, 133, 175, 1)"></circle><circle r="5" cx="1112.37" cy="351.51" fill="rgba(88, 133, 175, 1)"></circle><circle r="5" cx="1115.3" cy="491.74" fill="rgba(88, 133, 175, 1)"></circle><circle r="5" cx="1162.25" cy="656.69" fill="rgba(88, 133, 175, 1)"></circle><circle r="5" cx="1270.22" cy="-81.92" fill="rgba(88, 133, 175, 1)"></circle><circle r="5" cx="1299.63" cy="104.99" fill="rgba(88, 133, 175, 1)"></circle><circle r="5" cx="1274.7" cy="203.06" fill="rgba(88, 133, 175, 1)"></circle><circle r="5" cx="1257.43" cy="408.07" fill="rgba(88, 133, 175, 1)"></circle><circle r="5" cx="1283.48" cy="659.27" fill="rgba(88, 133, 175, 1)"></circle><circle r="5" cx="1398.95" cy="-98.3" fill="rgba(88, 133, 175, 1)"></circle><circle r="5" cx="1400.59" cy="62.64" fill="rgba(88, 133, 175, 1)"></circle><circle r="5" cx="1423.18" cy="191.04" fill="rgba(88, 133, 175, 1)"></circle><circle r="5" cx="1405.89" cy="341.86" fill="rgba(88, 133, 175, 1)"></circle><circle r="5" cx="1417.64" cy="649.39" fill="rgba(88, 133, 175, 1)"></circle><circle r="5" cx="1594.09" cy="-97.86" fill="rgba(88, 133, 175, 1)"></circle><circle r="5" cx="1581.5" cy="38.49" fill="rgba(88, 133, 175, 1)"></circle><circle r="5" cx="1608.46" cy="218.27" fill="rgba(88, 133, 175, 1)"></circle><circle r="5" cx="1593.58" cy="382.98" fill="rgba(88, 133, 175, 1)"></circle><circle r="5" cx="1579.78" cy="545.98" fill="rgba(88, 133, 175, 1)"></circle><circle r="5" cx="1543.62" cy="651.45" fill="rgba(88, 133, 175, 1)"></circle><path d="M-103.46 554.03L-103.46 554.03" stroke="hsl(216.79999999999995, 49%, 39%)" stroke-width="1.5"></path><path d="M-103.46 554.03L-106.73 658.94" stroke="hsl(216.79999999999995, 49%, 39%)" stroke-width="1.5"></path><path d="M-103.46 554.03L40.35 648.62" stroke="hsl(216.79999999999995, 49%, 39%)" stroke-width="1.5"></path><path d="M40.35 648.62L40.35 648.62" stroke="hsl(216.79999999999995, 49%, 39%)" stroke-width="1.5"></path><path d="M40.35 648.62L67.01 525.55" stroke="hsl(216.79999999999995, 49%, 39%)" stroke-width="1.5"></path><path d="M352.67 668.92L352.67 668.92" stroke="hsl(216.79999999999995, 49%, 39%)" stroke-width="1.5"></path><path d="M352.67 668.92L363.21 559.76" stroke="hsl(216.79999999999995, 49%, 39%)" stroke-width="1.5"></path><path d="M352.67 668.92L228.52 711.45" stroke="hsl(216.79999999999995, 49%, 39%)" stroke-width="1.5"></path><path d="M1127.82 194.75L1127.82 194.75" stroke="hsl(216.79999999999995, 49%, 39%)" stroke-width="1.5"></path><path d="M1127.82 194.75L1149.83 108.15" stroke="hsl(216.79999999999995, 49%, 39%)" stroke-width="1.5"></path><path d="M1127.82 194.75L1255.85 89.32" stroke="hsl(216.79999999999995, 49%, 39%)" stroke-width="1.5"></path><path d="M1127.82 194.75L1299.64 205.96" stroke="hsl(216.79999999999995, 49%, 39%)" stroke-width="1.5"></path><path d="M1127.82 194.75L1102.15 382.51" stroke="hsl(216.79999999999995, 49%, 39%)" stroke-width="1.5"></path><path d="M1127.82 194.75L972.66 367.96" stroke="hsl(216.79999999999995, 49%, 39%)" stroke-width="1.5"></path><path d="M1449.4 102.17L1449.4 102.17" stroke="hsl(216.79999999999995, 49%, 39%)" stroke-width="1.5"></path><path d="M1449.4 102.17L1600.74 83.42" stroke="hsl(216.79999999999995, 49%, 39%)" stroke-width="1.5"></path><path d="M1449.4 102.17L1403.73 256.89" stroke="hsl(216.79999999999995, 49%, 39%)" stroke-width="1.5"></path><path d="M1449.4 102.17L1450.08 -62.03" stroke="hsl(216.79999999999995, 49%, 39%)" stroke-width="1.5"></path><path d="M1449.4 102.17L1299.64 205.96" stroke="hsl(216.79999999999995, 49%, 39%)" stroke-width="1.5"></path><path d="M1449.4 102.17L1566.93 -41.55" stroke="hsl(216.79999999999995, 49%, 39%)" stroke-width="1.5"></path><path d="M1390.23 385.75L1390.23 385.75" stroke="hsl(216.79999999999995, 49%, 39%)" stroke-width="1.5"></path><path d="M1390.23 385.75L1393.73 489.7" stroke="hsl(216.79999999999995, 49%, 39%)" stroke-width="1.5"></path><path d="M1390.23 385.75L1266.83 390.96" stroke="hsl(216.79999999999995, 49%, 39%)" stroke-width="1.5"></path><path d="M1390.23 385.75L1403.73 256.89" stroke="hsl(216.79999999999995, 49%, 39%)" stroke-width="1.5"></path><path d="M1390.23 385.75L1272.69 542.1" stroke="hsl(216.79999999999995, 49%, 39%)" stroke-width="1.5"></path><path d="M1390.23 385.75L1299.64 205.96" stroke="hsl(216.79999999999995, 49%, 39%)" stroke-width="1.5"></path><path d="M1390.23 385.75L1597.93 346.4" stroke="hsl(216.79999999999995, 49%, 39%)" stroke-width="1.5"></path><path d="M1393.73 489.7L1393.73 489.7" stroke="hsl(216.79999999999995, 49%, 39%)" stroke-width="1.5"></path><path d="M1393.73 489.7L1272.69 542.1" stroke="hsl(216.79999999999995, 49%, 39%)" stroke-width="1.5"></path><path d="M1451.04 680.9L1451.04 680.9" stroke="hsl(216.79999999999995, 49%, 39%)" stroke-width="1.5"></path><path d="M1451.04 680.9L1545.23 655.28" stroke="hsl(216.79999999999995, 49%, 39%)" stroke-width="1.5"></path><path d="M1451.04 680.9L1305.93 651.73" stroke="hsl(216.79999999999995, 49%, 39%)" stroke-width="1.5"></path><path d="M-106.73 658.94L-106.73 658.94" stroke="hsl(216.79999999999995, 49%, 39%)" stroke-width="1.5"></path><path d="M-106.73 658.94L40.35 648.62" stroke="hsl(216.79999999999995, 49%, 39%)" stroke-width="1.5"></path><path d="M-106.73 658.94L67.01 525.55" stroke="hsl(216.79999999999995, 49%, 39%)" stroke-width="1.5"></path><path d="M-106.73 658.94L228.52 711.45" stroke="hsl(216.79999999999995, 49%, 39%)" stroke-width="1.5"></path><path d="M-106.73 658.94L205.38 517.67" stroke="hsl(216.79999999999995, 49%, 39%)" stroke-width="1.5"></path><path d="M-106.73 658.94L352.67 668.92" stroke="hsl(216.79999999999995, 49%, 39%)" stroke-width="1.5"></path><path d="M67.01 525.55L67.01 525.55" stroke="hsl(216.79999999999995, 49%, 39%)" stroke-width="1.5"></path><path d="M67.01 525.55L205.38 517.67" stroke="hsl(216.79999999999995, 49%, 39%)" stroke-width="1.5"></path><path d="M205.38 517.67L205.38 517.67" stroke="hsl(216.79999999999995, 49%, 39%)" stroke-width="1.5"></path><path d="M205.38 517.67L363.21 559.76" stroke="hsl(216.79999999999995, 49%, 39%)" stroke-width="1.5"></path><path d="M205.38 517.67L228.52 711.45" stroke="hsl(216.79999999999995, 49%, 39%)" stroke-width="1.5"></path><path d="M205.38 517.67L40.35 648.62" stroke="hsl(216.79999999999995, 49%, 39%)" stroke-width="1.5"></path><path d="M205.38 517.67L352.67 668.92" stroke="hsl(216.79999999999995, 49%, 39%)" stroke-width="1.5"></path><path d="M205.38 517.67L-103.46 554.03" stroke="hsl(216.79999999999995, 49%, 39%)" stroke-width="1.5"></path><path d="M228.52 711.45L228.52 711.45" stroke="hsl(216.79999999999995, 49%, 39%)" stroke-width="1.5"></path><path d="M228.52 711.45L40.35 648.62" stroke="hsl(216.79999999999995, 49%, 39%)" stroke-width="1.5"></path><path d="M228.52 711.45L363.21 559.76" stroke="hsl(216.79999999999995, 49%, 39%)" stroke-width="1.5"></path><path d="M228.52 711.45L67.01 525.55" stroke="hsl(216.79999999999995, 49%, 39%)" stroke-width="1.5"></path><path d="M228.52 711.45L535.32 675.09" stroke="hsl(216.79999999999995, 49%, 39%)" stroke-width="1.5"></path><path d="M363.21 559.76L363.21 559.76" stroke="hsl(216.79999999999995, 49%, 39%)" stroke-width="1.5"></path><path d="M363.21 559.76L529.7 515.31" stroke="hsl(216.79999999999995, 49%, 39%)" stroke-width="1.5"></path><path d="M363.21 559.76L535.32 675.09" stroke="hsl(216.79999999999995, 49%, 39%)" stroke-width="1.5"></path><path d="M363.21 559.76L502.04 405.79" stroke="hsl(216.79999999999995, 49%, 39%)" stroke-width="1.5"></path><path d="M502.04 405.79L502.04 405.79" stroke="hsl(216.79999999999995, 49%, 39%)" stroke-width="1.5"></path><path d="M502.04 405.79L529.7 515.31" stroke="hsl(216.79999999999995, 49%, 39%)" stroke-width="1.5"></path><path d="M502.04 405.79L640.02 378.92" stroke="hsl(216.79999999999995, 49%, 39%)" stroke-width="1.5"></path><path d="M502.04 405.79L659.34 533.87" stroke="hsl(216.79999999999995, 49%, 39%)" stroke-width="1.5"></path><path d="M502.04 405.79L535.32 675.09" stroke="hsl(216.79999999999995, 49%, 39%)" stroke-width="1.5"></path><path d="M529.7 515.31L529.7 515.31" stroke="hsl(216.79999999999995, 49%, 39%)" stroke-width="1.5"></path><path d="M529.7 515.31L659.34 533.87" stroke="hsl(216.79999999999995, 49%, 39%)" stroke-width="1.5"></path><path d="M529.7 515.31L535.32 675.09" stroke="hsl(216.79999999999995, 49%, 39%)" stroke-width="1.5"></path><path d="M529.7 515.31L640.02 378.92" stroke="hsl(216.79999999999995, 49%, 39%)" stroke-width="1.5"></path><path d="M535.32 675.09L535.32 675.09" stroke="hsl(216.79999999999995, 49%, 39%)" stroke-width="1.5"></path><path d="M535.32 675.09L691.63 665.51" stroke="hsl(216.79999999999995, 49%, 39%)" stroke-width="1.5"></path><path d="M640.02 378.92L640.02 378.92" stroke="hsl(216.79999999999995, 49%, 39%)" stroke-width="1.5"></path><path d="M640.02 378.92L659.34 533.87" stroke="hsl(216.79999999999995, 49%, 39%)" stroke-width="1.5"></path><path d="M640.02 378.92L804.55 490.46" stroke="hsl(216.79999999999995, 49%, 39%)" stroke-width="1.5"></path><path d="M640.02 378.92L842.48 389.88" stroke="hsl(216.79999999999995, 49%, 39%)" stroke-width="1.5"></path><path d="M659.34 533.87L659.34 533.87" stroke="hsl(216.79999999999995, 49%, 39%)" stroke-width="1.5"></path><path d="M691.63 665.51L691.63 665.51" stroke="hsl(216.79999999999995, 49%, 39%)" stroke-width="1.5"></path><path d="M691.63 665.51L659.34 533.87" stroke="hsl(216.79999999999995, 49%, 39%)" stroke-width="1.5"></path><path d="M691.63 665.51L858.52 703.29" stroke="hsl(216.79999999999995, 49%, 39%)" stroke-width="1.5"></path><path d="M691.63 665.51L804.55 490.46" stroke="hsl(216.79999999999995, 49%, 39%)" stroke-width="1.5"></path><path d="M691.63 665.51L529.7 515.31" stroke="hsl(216.79999999999995, 49%, 39%)" stroke-width="1.5"></path><path d="M691.63 665.51L952.64 653.24" stroke="hsl(216.79999999999995, 49%, 39%)" stroke-width="1.5"></path><path d="M842.48 389.88L842.48 389.88" stroke="hsl(216.79999999999995, 49%, 39%)" stroke-width="1.5"></path><path d="M842.48 389.88L804.55 490.46" stroke="hsl(216.79999999999995, 49%, 39%)" stroke-width="1.5"></path><path d="M842.48 389.88L972.66 367.96" stroke="hsl(216.79999999999995, 49%, 39%)" stroke-width="1.5"></path><path d="M842.48 389.88L996.92 514.56" stroke="hsl(216.79999999999995, 49%, 39%)" stroke-width="1.5"></path><path d="M842.48 389.88L659.34 533.87" stroke="hsl(216.79999999999995, 49%, 39%)" stroke-width="1.5"></path><path d="M842.48 389.88L1102.15 382.51" stroke="hsl(216.79999999999995, 49%, 39%)" stroke-width="1.5"></path><path d="M804.55 490.46L804.55 490.46" stroke="hsl(216.79999999999995, 49%, 39%)" stroke-width="1.5"></path><path d="M804.55 490.46L659.34 533.87" stroke="hsl(216.79999999999995, 49%, 39%)" stroke-width="1.5"></path><path d="M804.55 490.46L996.92 514.56" stroke="hsl(216.79999999999995, 49%, 39%)" stroke-width="1.5"></path><path d="M858.52 703.29L858.52 703.29" stroke="hsl(216.79999999999995, 49%, 39%)" stroke-width="1.5"></path><path d="M858.52 703.29L952.64 653.24" stroke="hsl(216.79999999999995, 49%, 39%)" stroke-width="1.5"></path><path d="M972.66 367.96L972.66 367.96" stroke="hsl(216.79999999999995, 49%, 39%)" stroke-width="1.5"></path><path d="M972.66 367.96L1102.15 382.51" stroke="hsl(216.79999999999995, 49%, 39%)" stroke-width="1.5"></path><path d="M972.66 367.96L996.92 514.56" stroke="hsl(216.79999999999995, 49%, 39%)" stroke-width="1.5"></path><path d="M972.66 367.96L1133.83 497" stroke="hsl(216.79999999999995, 49%, 39%)" stroke-width="1.5"></path><path d="M972.66 367.96L804.55 490.46" stroke="hsl(216.79999999999995, 49%, 39%)" stroke-width="1.5"></path><path d="M996.92 514.56L996.92 514.56" stroke="hsl(216.79999999999995, 49%, 39%)" stroke-width="1.5"></path><path d="M996.92 514.56L1133.83 497" stroke="hsl(216.79999999999995, 49%, 39%)" stroke-width="1.5"></path><path d="M996.92 514.56L952.64 653.24" stroke="hsl(216.79999999999995, 49%, 39%)" stroke-width="1.5"></path><path d="M996.92 514.56L1102.15 382.51" stroke="hsl(216.79999999999995, 49%, 39%)" stroke-width="1.5"></path><path d="M952.64 653.24L952.64 653.24" stroke="hsl(216.79999999999995, 49%, 39%)" stroke-width="1.5"></path><path d="M952.64 653.24L1160.53 690.72" stroke="hsl(216.79999999999995, 49%, 39%)" stroke-width="1.5"></path><path d="M952.64 653.24L804.55 490.46" stroke="hsl(216.79999999999995, 49%, 39%)" stroke-width="1.5"></path><path d="M952.64 653.24L1133.83 497" stroke="hsl(216.79999999999995, 49%, 39%)" stroke-width="1.5"></path><path d="M1149.83 108.15L1149.83 108.15" stroke="hsl(216.79999999999995, 49%, 39%)" stroke-width="1.5"></path><path d="M1149.83 108.15L1255.85 89.32" stroke="hsl(216.79999999999995, 49%, 39%)" stroke-width="1.5"></path><path d="M1149.83 108.15L1299.64 205.96" stroke="hsl(216.79999999999995, 49%, 39%)" stroke-width="1.5"></path><path d="M1149.83 108.15L1244.37 -58.64" stroke="hsl(216.79999999999995, 49%, 39%)" stroke-width="1.5"></path><path d="M1149.83 108.15L1102.15 382.51" stroke="hsl(216.79999999999995, 49%, 39%)" stroke-width="1.5"></path><path d="M1102.15 382.51L1102.15 382.51" stroke="hsl(216.79999999999995, 49%, 39%)" stroke-width="1.5"></path><path d="M1102.15 382.51L1133.83 497" stroke="hsl(216.79999999999995, 49%, 39%)" stroke-width="1.5"></path><path d="M1133.83 497L1133.83 497" stroke="hsl(216.79999999999995, 49%, 39%)" stroke-width="1.5"></path><path d="M1133.83 497L1272.69 542.1" stroke="hsl(216.79999999999995, 49%, 39%)" stroke-width="1.5"></path><path d="M1133.83 497L1266.83 390.96" stroke="hsl(216.79999999999995, 49%, 39%)" stroke-width="1.5"></path><path d="M1133.83 497L1160.53 690.72" stroke="hsl(216.79999999999995, 49%, 39%)" stroke-width="1.5"></path><path d="M1160.53 690.72L1160.53 690.72" stroke="hsl(216.79999999999995, 49%, 39%)" stroke-width="1.5"></path><path d="M1160.53 690.72L1305.93 651.73" stroke="hsl(216.79999999999995, 49%, 39%)" stroke-width="1.5"></path><path d="M1160.53 690.72L1272.69 542.1" stroke="hsl(216.79999999999995, 49%, 39%)" stroke-width="1.5"></path><path d="M1244.37 -58.64L1244.37 -58.64" stroke="hsl(216.79999999999995, 49%, 39%)" stroke-width="1.5"></path><path d="M1244.37 -58.64L1255.85 89.32" stroke="hsl(216.79999999999995, 49%, 39%)" stroke-width="1.5"></path><path d="M1244.37 -58.64L1450.08 -62.03" stroke="hsl(216.79999999999995, 49%, 39%)" stroke-width="1.5"></path><path d="M1244.37 -58.64L1449.4 102.17" stroke="hsl(216.79999999999995, 49%, 39%)" stroke-width="1.5"></path><path d="M1255.85 89.32L1255.85 89.32" stroke="hsl(216.79999999999995, 49%, 39%)" stroke-width="1.5"></path><path d="M1255.85 89.32L1299.64 205.96" stroke="hsl(216.79999999999995, 49%, 39%)" stroke-width="1.5"></path><path d="M1299.64 205.96L1299.64 205.96" stroke="hsl(216.79999999999995, 49%, 39%)" stroke-width="1.5"></path><path d="M1299.64 205.96L1403.73 256.89" stroke="hsl(216.79999999999995, 49%, 39%)" stroke-width="1.5"></path><path d="M1266.83 390.96L1266.83 390.96" stroke="hsl(216.79999999999995, 49%, 39%)" stroke-width="1.5"></path><path d="M1266.83 390.96L1272.69 542.1" stroke="hsl(216.79999999999995, 49%, 39%)" stroke-width="1.5"></path><path d="M1272.69 542.1L1272.69 542.1" stroke="hsl(216.79999999999995, 49%, 39%)" stroke-width="1.5"></path><path d="M1272.69 542.1L1305.93 651.73" stroke="hsl(216.79999999999995, 49%, 39%)" stroke-width="1.5"></path><path d="M1305.93 651.73L1305.93 651.73" stroke="hsl(216.79999999999995, 49%, 39%)" stroke-width="1.5"></path><path d="M1305.93 651.73L1393.73 489.7" stroke="hsl(216.79999999999995, 49%, 39%)" stroke-width="1.5"></path><path d="M1305.93 651.73L1133.83 497" stroke="hsl(216.79999999999995, 49%, 39%)" stroke-width="1.5"></path><path d="M1305.93 651.73L1545.23 655.28" stroke="hsl(216.79999999999995, 49%, 39%)" stroke-width="1.5"></path><path d="M1450.08 -62.03L1450.08 -62.03" stroke="hsl(216.79999999999995, 49%, 39%)" stroke-width="1.5"></path><path d="M1450.08 -62.03L1566.93 -41.55" stroke="hsl(216.79999999999995, 49%, 39%)" stroke-width="1.5"></path><path d="M1450.08 -62.03L1600.74 83.42" stroke="hsl(216.79999999999995, 49%, 39%)" stroke-width="1.5"></path><path d="M1403.73 256.89L1403.73 256.89" stroke="hsl(216.79999999999995, 49%, 39%)" stroke-width="1.5"></path><path d="M1403.73 256.89L1576.37 241.4" stroke="hsl(216.79999999999995, 49%, 39%)" stroke-width="1.5"></path><path d="M1403.73 256.89L1266.83 390.96" stroke="hsl(216.79999999999995, 49%, 39%)" stroke-width="1.5"></path><path d="M1403.73 256.89L1597.93 346.4" stroke="hsl(216.79999999999995, 49%, 39%)" stroke-width="1.5"></path><path d="M1566.93 -41.55L1566.93 -41.55" stroke="hsl(216.79999999999995, 49%, 39%)" stroke-width="1.5"></path><path d="M1566.93 -41.55L1600.74 83.42" stroke="hsl(216.79999999999995, 49%, 39%)" stroke-width="1.5"></path><path d="M1566.93 -41.55L1576.37 241.4" stroke="hsl(216.79999999999995, 49%, 39%)" stroke-width="1.5"></path><path d="M1566.93 -41.55L1244.37 -58.64" stroke="hsl(216.79999999999995, 49%, 39%)" stroke-width="1.5"></path><path d="M1600.74 83.42L1600.74 83.42" stroke="hsl(216.79999999999995, 49%, 39%)" stroke-width="1.5"></path><path d="M1576.37 241.4L1576.37 241.4" stroke="hsl(216.79999999999995, 49%, 39%)" stroke-width="1.5"></path><path d="M1576.37 241.4L1597.93 346.4" stroke="hsl(216.79999999999995, 49%, 39%)" stroke-width="1.5"></path><path d="M1576.37 241.4L1600.74 83.42" stroke="hsl(216.79999999999995, 49%, 39%)" stroke-width="1.5"></path><path d="M1597.93 346.4L1597.93 346.4" stroke="hsl(216.79999999999995, 49%, 39%)" stroke-width="1.5"></path><path d="M1597.93 346.4L1552.02 550.58" stroke="hsl(216.79999999999995, 49%, 39%)" stroke-width="1.5"></path><path d="M1552.02 550.58L1552.02 550.58" stroke="hsl(216.79999999999995, 49%, 39%)" stroke-width="1.5"></path><path d="M1552.02 550.58L1545.23 655.28" stroke="hsl(216.79999999999995, 49%, 39%)" stroke-width="1.5"></path><path d="M1552.02 550.58L1451.04 680.9" stroke="hsl(216.79999999999995, 49%, 39%)" stroke-width="1.5"></path><path d="M1552.02 550.58L1393.73 489.7" stroke="hsl(216.79999999999995, 49%, 39%)" stroke-width="1.5"></path><path d="M1545.23 655.28L1545.23 655.28" stroke="hsl(216.79999999999995, 49%, 39%)" stroke-width="1.5"></path><circle r="25" cx="-103.46" cy="554.03" fill="url(#SvgjsRadialGradient1015)"></circle><circle r="25" cx="40.35" cy="648.62" fill="url(#SvgjsRadialGradient1015)"></circle><circle r="25" cx="352.67" cy="668.92" fill="url(#SvgjsRadialGradient1015)"></circle><circle r="25" cx="1127.82" cy="194.75" fill="url(#SvgjsRadialGradient1015)"></circle><circle r="25" cx="1449.4" cy="102.17" fill="url(#SvgjsRadialGradient1015)"></circle><circle r="25" cx="1390.23" cy="385.75" fill="url(#SvgjsRadialGradient1015)"></circle><circle r="25" cx="1393.73" cy="489.7" fill="url(#SvgjsRadialGradient1015)"></circle><circle r="25" cx="1451.04" cy="680.9" fill="url(#SvgjsRadialGradient1015)"></circle><circle r="5" cx="-106.73" cy="658.94" fill="#93a2b9"></circle><circle r="5" cx="67.01" cy="525.55" fill="#93a2b9"></circle><circle r="5" cx="205.38" cy="517.67" fill="#93a2b9"></circle><circle r="5" cx="228.52" cy="711.45" fill="#93a2b9"></circle><circle r="5" cx="363.21" cy="559.76" fill="#93a2b9"></circle><circle r="5" cx="502.04" cy="405.79" fill="#93a2b9"></circle><circle r="5" cx="529.7" cy="515.31" fill="#93a2b9"></circle><circle r="5" cx="535.32" cy="675.09" fill="#93a2b9"></circle><circle r="5" cx="640.02" cy="378.92" fill="#93a2b9"></circle><circle r="5" cx="659.34" cy="533.87" fill="#93a2b9"></circle><circle r="5" cx="691.63" cy="665.51" fill="#93a2b9"></circle><circle r="5" cx="842.48" cy="389.88" fill="#93a2b9"></circle><circle r="5" cx="804.55" cy="490.46" fill="#93a2b9"></circle><circle r="5" cx="858.52" cy="703.29" fill="#93a2b9"></circle><circle r="5" cx="972.66" cy="367.96" fill="#93a2b9"></circle><circle r="5" cx="996.92" cy="514.56" fill="#93a2b9"></circle><circle r="5" cx="952.64" cy="653.24" fill="#93a2b9"></circle><circle r="5" cx="1149.83" cy="108.15" fill="#93a2b9"></circle><circle r="5" cx="1102.15" cy="382.51" fill="#93a2b9"></circle><circle r="5" cx="1133.83" cy="497" fill="#93a2b9"></circle><circle r="5" cx="1160.53" cy="690.72" fill="#93a2b9"></circle><circle r="5" cx="1244.37" cy="-58.64" fill="#93a2b9"></circle><circle r="5" cx="1255.85" cy="89.32" fill="#93a2b9"></circle><circle r="5" cx="1299.64" cy="205.96" fill="#93a2b9"></circle><circle r="5" cx="1266.83" cy="390.96" fill="#93a2b9"></circle><circle r="5" cx="1272.69" cy="542.1" fill="#93a2b9"></circle><circle r="5" cx="1305.93" cy="651.73" fill="#93a2b9"></circle><circle r="5" cx="1450.08" cy="-62.03" fill="#93a2b9"></circle><circle r="5" cx="1403.73" cy="256.89" fill="#93a2b9"></circle><circle r="5" cx="1566.93" cy="-41.55" fill="#93a2b9"></circle><circle r="5" cx="1600.74" cy="83.42" fill="#93a2b9"></circle><circle r="5" cx="1576.37" cy="241.4" fill="#93a2b9"></circle><circle r="5" cx="1597.93" cy="346.4" fill="#93a2b9"></circle><circle r="5" cx="1552.02" cy="550.58" fill="#93a2b9"></circle><circle r="5" cx="1545.23" cy="655.28" fill="#93a2b9"></circle></g><defs><mask id="SvgjsMask1014"><rect width="1440" height="560" fill="#ffffff"></rect></mask><radialGradient id="SvgjsRadialGradient1015"><stop stop-color="#ffffff" offset="0.1"></stop><stop stop-color="rgba(39, 68, 114, 1)" offset="0.2"></stop><stop stop-color="rgba(39, 68, 114, 0)" offset="1"></stop></radialGradient></defs></svg>